<svg xmlns="http://www.w3.org/2000/svg" xmlns:xlink="http://www.w3.org/1999/xlink" width="782.325" height="458.099" viewBox="0 0 782.325 458.099" role="img" artist="Katerina Limpitsouni" source="https://undraw.co/"><defs><clipPath id="a-2270"><circle cx="187" cy="187" r="187" fill="none" stroke="#707070" stroke-width="1"/></clipPath></defs><g transform="translate(-495 -183)"><g transform="translate(495 183)"><circle cx="171" cy="171" r="171" transform="translate(13 32)" fill="#f2f2f2"/><g clip-path="url(#a-2270)"><path d="M376.187,378.585l1.094,20.794s-3.23,18.419-.573,22.394c2.637,3.955,75.041,9.838,75.041,9.838s-2.273-31.011,1.825-53.443Z" transform="translate(-228.161 -54.095)" fill="#ed9da0"/></g><path d="M597.724,242.764a15.152,15.152,0,0,1-22.061,7.286L475.375,319.915l-2.769-27.842,98.607-63.887a15.233,15.233,0,0,1,26.511,14.578Z" transform="translate(-210.742 -62.656)" fill="#ffb6b6"/><path d="M382.054,284.838s-10.859,16.046,6.181,30.245,86.108,11.375,97.255,11.253,62.286-53.024,62.286-53.024l-.332-30.554L485.7,279.395Z" transform="translate(-219.611 -60.679)" fill="#ff7b63"/><circle cx="32.359" cy="32.359" r="32.359" transform="translate(155.052 126.039)" fill="#ed9da0"/><path d="M389.363,261.362l29.67,3.491a6.054,6.054,0,0,1,5.207,4.72l4.718,21.6,29.414,34.638s10.563,19.8,6.6,42.249a158.985,158.985,0,0,1-12.268,39.123s-72.333,29.584-74.976,25.627-3.5-21.952-3.5-21.952l-9.305-103.542a37.148,37.148,0,0,1,10.676-29.85c2.348-2.309,4.665-3.927,6.551-3.927C386.415,273.388,385.869,263.8,389.363,261.362Z" transform="translate(-220.924 -58.922)" fill="#ff7b63"/><path d="M407.131,504.322a15.152,15.152,0,0,1-2.773-23.067L355.735,369.117l27.839,2.8,43.1,109.306a15.233,15.233,0,0,1-19.539,23.1Z" transform="translate(-221.775 -48.749)" fill="#ed9da0"/><path d="M409.153,284.107s-13.578-13.822-30.871.07-28.2,82.15-30.288,93.1,39.641,71.552,39.641,71.552l30.014,5.722-23.684-67.776Z" transform="translate(-222.512 -57.354)" fill="#ff7b63"/><path d="M0,18.7l.317-2.521L7.6,0,31.681,7.192l-4.432,22.3Z" transform="translate(166.055 185.884) rotate(-13)" fill="#ed9da0"/><path d="M483.752,41.368c-2.283-11.165-3.377-16.885-11.677-24.783-1.969.279.517,10.488-10.333,24.71-15.777,20.674-14.2,1.718-18.87,8.087-1.013,1.383-1.232,6.37-.9,8.087,1.315,6.781,9.093.16.9,23.363-1.22,1.8-2.658,1.366-4.493,1.343-.142,0,.788-.179-2.7-.9-1.663-.343-3.991-.749-6.781-1.219-32.415-5.461-43.862-46.362-18.807-67.642,5.7-4.841,11.3-8.51,16.153-10.211,14.634-5.116,47.966-1.79,54.363,14.831a50.9,50.9,0,0,1,3.136,24.334Z" transform="translate(-264.317 114.702)" fill="#090814" stroke="#000" stroke-width="2"/><circle cx="23.119" cy="23.119" r="23.119" transform="translate(129.553 175.487)" fill="#090814" stroke="#000" stroke-width="2"/><path d="M566.782,232.267a12.955,12.955,0,0,0,0-25.911v1.729a11.217,11.217,0,1,1-4.416.9l-.681-1.589a12.957,12.957,0,0,0,5.1,24.869Z" transform="translate(-383.501 -39.462)" fill="#ff7b63"/></g><g transform="translate(927.582 299.373) rotate(-16)"><path d="M60.966,64.066C60.966,81.187,48.12,62,31,62A31,31,0,0,1,31,0C48.12,0,60.966,46.945,60.966,64.066Z" transform="translate(114.699 167.399)" fill="#ff7b63"/><path d="M56.833,31a31,31,0,0,1-31,31C8.712,62,0,96.687,0,79.566S8.712,0,25.833,0a31,31,0,0,1,31,31Z" transform="translate(0 45.466)" fill="#ff7b63"/><path d="M2.288,4.649c4.474-2.61,9.953-1.712,14.2.932C21.325,8.588,24,13.768,25.179,19.2a43.908,43.908,0,0,1-.059,17.7c-1.153,5.626-4.1,11.6-10.095,13.219-3.992,1.076-8.453-.311-9.908-4.43a10.164,10.164,0,0,1,1.844-9.8c3.36-3.781,9.218-3.976,13.617-2.089,5.174,2.219,8.328,7.228,9.657,12.529,1.58,6.3.585,12.84-1.078,19.018-1.807,6.715-4.2,13.279-6.352,19.888-4.2,12.889-8.058,26.022-9.062,39.605-1.533,20.75,5.3,44.692,24.263,55.822,10.238,6.008,22.557,6.966,34.018,4.594,12.086-2.5,22.881-8.745,32.254-16.622A142.1,142.1,0,0,0,118,155.205,10.148,10.148,0,0,1,128.834,152c9.86,3.133,8.043,18.918-1.712,20.855-4.433.88-9.238-1.253-12.519-4.132a24.06,24.06,0,0,1-7.208-12.3c-2.481-9.954.416-20.911,6.3-29.135,6.651-9.29,17.416-15.075,28.068-18.515,12.128-3.917,24.83-5.071,37.443-6.349,12.907-1.307,25.951-2.832,38.138-7.528a95.419,95.419,0,0,0,26.958-16A99.669,99.669,0,0,0,277.1,26.468a91.3,91.3,0,0,0,2.3-15.092c.136-1.991-2.964-1.983-3.1,0-1.518,22.172-11.791,43.262-27.33,59.006a94.524,94.524,0,0,1-26.808,19.105c-12.029,5.684-25.107,7.918-38.237,9.342-13.411,1.454-26.991,2.312-40.019,6.049-11.518,3.3-23,8.907-30.849,18.223-6.918,8.214-10.709,19.483-9.359,30.218,1.256,9.988,7.625,20.272,18.089,22.443,4.91,1.019,9.992-.278,13.268-4.223a15.634,15.634,0,0,0,2.112-16.226,12.97,12.97,0,0,0-16.384-5.929,15.786,15.786,0,0,0-5.622,4.343c-8.944,9.807-19.1,18.96-31.317,24.457-11.4,5.127-24.824,7.055-36.879,3.132C24.14,173.892,15.4,147.8,16.774,125.874c.9-14.349,5.211-28.208,9.668-41.786,2.276-6.933,4.867-13.848,6.465-20.978,1.431-6.384,1.868-13.148-.216-19.444-1.819-5.5-5.484-10.388-10.911-12.691-4.93-2.092-10.971-2.043-15.378,1.256C.029,37-.554,48.827,7.315,52.5c5.222,2.436,11.512.54,15.363-3.505C27,44.457,28.4,38.066,28.888,32.017c.919-11.43-1.6-25.217-13.227-30.374C10.871-.483,5.342-.722.724,1.972A1.551,1.551,0,0,0,2.288,4.649Z" transform="translate(12.818 37.641)" fill="#3f3d56"/><path d="M138.467,56.833c0,18.156,28.5,64.449,18.91,78.347q-1.782,2.6-3.772,5.063a85.35,85.35,0,0,1-14.653,14.374c-.92.723-1.85,1.416-2.79,2.087a87,87,0,0,1-10.488,6.376c-.661.331-1.333.661-2,.992A86.289,86.289,0,0,1,25.731,24.831c.765-.765,1.55-1.509,2.356-2.242A85.937,85.937,0,0,1,55.522,5.652c.01,0,.01-.01.021-.01a86.625,86.625,0,0,1,47.647-3.978h.021c.351.072.7.145,1.054.227C143.293,10.147,138.467,15.345,138.467,56.833Z" transform="translate(154.998 0)" fill="#ff7b63"/><path d="M101.136,140.1a1.632,1.632,0,0,1-.01.393c-.661.331-1.333.661-2,.992a1.55,1.55,0,0,1-1.085-1.385,21.181,21.181,0,0,0-.9-4.6c-4.03-12.979-18.166-19.613-30.5-21.958-15.1-2.883-30.979-1.684-45.342-7.915A39.151,39.151,0,0,1,6.09,94.57,27.82,27.82,0,0,1,.045,75.609c.847-16.11,12.2-28.716,16.089-43.916,1.6-6.262,1.6-12.793-1.25-18.7C12.466,7.967,8.126,3.555,2.339,2.935a1.5,1.5,0,0,1-1.157-.692C1.947,1.478,2.732.734,3.538,0A15.066,15.066,0,0,1,6.607.8c5.663,2.17,9.6,7.078,11.811,12.586,2.552,6.376,2.315,13.237.537,19.778C14.812,48.411,2.639,61.648,3.114,78.089c.413,14.25,12.855,23.136,25.4,26.9,15.521,4.65,32.333,2.449,47.688,7.833C88.281,117.055,100.01,126.531,101.136,140.1Z" transform="translate(179.547 22.588)" fill="#3f3d56"/><path d="M83.544,146.412c-.92.723-1.85,1.416-2.79,2.087a1.289,1.289,0,0,1-.341-1.013,52.457,52.457,0,0,0-12.886-36.507,51.829,51.829,0,0,0-13.392-11.1c-5.291-3.028-11.1-4.65-16.854-6.531-5.663-1.85-11.418-4.092-15.748-8.318-4.412-4.309-6.582-10.147-7.244-16.182-1.56-14.3,5.6-27.445,6.179-41.529.258-6.283-1.126-12.39-5.022-17.443C12.08,5.517,7.109,2.541,1.478,3.2-.382,3.43-.475.7,1.137.175A1.654,1.654,0,0,1,1.478.1C8.029-.662,13.971,2.934,17.866,7.977c4.536,5.859,6.107,13,5.652,20.3-.889,14.136-8.329,27.724-5.911,42.087a21.776,21.776,0,0,0,9.331,15.045c5.187,3.42,11.315,4.96,17.164,6.861a57.456,57.456,0,0,1,16.337,8A56.721,56.721,0,0,1,73.108,113.1a54.952,54.952,0,0,1,10.437,33.315Z" transform="translate(210.406 8.205)" fill="#3f3d56"/><path d="M57.222,131.325q-1.782,2.6-3.772,5.063a58.639,58.639,0,0,0-.9-24.159,60.865,60.865,0,0,0-14.2-26.691A53.323,53.323,0,0,0,26.532,75.9c-5.012-3-10.488-5.528-14.033-10.364-7.688-10.5-2.5-24.2-.021-35.484,1.3-5.89,2-12.162-.4-17.866C10.205,7.76,6.506,3.616,1.484,3.11-.49,2.913-.5-.2,1.484.01Q2.042.072,2.6.165c5.487.992,9.713,5.084,12.007,10.127,2.976,6.582,2.387,13.692.868,20.584-2.5,11.336-8.3,26.35,2.067,35.608,4.371,3.906,10.044,6.066,14.756,9.527a57.619,57.619,0,0,1,11.243,10.84,64.672,64.672,0,0,1,13.681,44.474Z" transform="translate(255.153 3.855)" fill="#3f3d56"/></g><path d="M16.581,63.922.046,1.723A1.37,1.37,0,0,1,2.65.881L24.9,59.013Z" transform="translate(865.93 361.114) rotate(-93)" fill="#3f3d56"/><path d="M19.036,22.639a31.259,31.259,0,0,1-6.978-2.34c-1.13-.54-2.223-1.148-3.292-1.777-.38-.212-.759-.439-1.132-.657-.89-.52-1.78-1.039-2.676-1.567-.759-.439-1.525-.886-2.276-1.331-1.111-.648-2.305-1.4-2.627-2.65a4.049,4.049,0,0,1,.95-3.334A13.631,13.631,0,0,1,3.8,6.505Q7.3,3.934,10.807,1.37L11.432,0a17.68,17.68,0,0,1,5.153,3.332A6.307,6.307,0,0,1,18.4,7.941a5.314,5.314,0,0,1-.184,1.112c-.452,1.589-1.634,2.941-2.335,4.464a8.609,8.609,0,0,0-.368.98,7,7,0,0,0,.773,5.911A6.469,6.469,0,0,0,19.036,22.639Z" transform="translate(920.646 346.922) rotate(-93)" fill="#ccc"/><path d="M14.078,14.7A31.259,31.259,0,0,1,7.1,12.358c-1.13-.54-2.223-1.148-3.292-1.777-.38-.212-.759-.439-1.132-.657C1.786,9.4.9,8.885,0,8.357a15.088,15.088,0,0,1,1-1.21C4.316,3.543,8.84,1.51,13.437,0a5.313,5.313,0,0,1-.184,1.112C12.8,2.7,11.619,4.052,10.918,5.576a8.609,8.609,0,0,0-.368.98,7,7,0,0,0,.773,5.911A6.469,6.469,0,0,0,14.078,14.7Z" transform="translate(928.318 341.555) rotate(-93)" fill="#ff7b63"/></g></svg>